<svg width="200" height="200" viewBox="0 0 200 200" fill="none" xmlns="http://www.w3.org/2000/svg">
<rect width="200" height="200" fill="black"/>
<rect x="63.9995" y="169" width="75" height="13" rx="6.5" fill="white"/>
<rect x="107" y="151" width="23" height="12" transform="rotate(90 107 151)" fill="white"/>
<rect x="69" y="20" width="63" height="116" rx="31.5" fill="white"/>
<path d="M101 145C80 145 57 129 57 101V88.9999C56.5 80.5 44.5 80.5 44 89L44 101C44 136 70.5 159 101 159C129 159 157 135.5 157 102.5V88.9999C156.5 81 144.5 81 144 88.9999V102.5C144 125.5 123.5 145 101 145Z" fill="white"/>
</svg>
